<?xml version="1.0" encoding="UTF-8"?>
<svg id="Layer_1" data-name="Layer 1" xmlns="http://www.w3.org/2000/svg" width="25" height="54" xmlns:v="https://vecta.io/nano" version="1.1" viewBox="0 0 25 54">
  <defs>
    <style>
      .cls-1 {
        fill: #dea8ff;
      }

      .cls-1, .cls-2, .cls-3, .cls-4, .cls-5, .cls-6, .cls-7, .cls-8, .cls-9, .cls-10 {
        stroke-width: 0px;
      }

      .cls-2 {
        fill: #c260ff;
      }

      .cls-3, .cls-8 {
        fill: #000;
      }

      .cls-4 {
        fill: #0122cd;
      }

      .cls-5 {
        fill: #edd3fd;
      }

      .cls-6 {
        fill: #64438e;
      }

      .cls-7 {
        fill: #05f;
      }

      .cls-8 {
        isolation: isolate;
        opacity: .2;
      }

      .cls-9 {
        fill: #fff;
      }

      .cls-10 {
        fill: #f696c6;
      }
    </style>
  </defs>
  <path class="cls-6" d="M24,8v-2h-2v-2h-2v-2h-4V0h-6v2h-4v2h-2v2h-2v2h-1v41h3v-2h3v2h4v-2h4v2h4v-2h3v2h3V8h-1Z"/>
  <path class="cls-5" d="M22,8v-2h-2v-2h-4v-2h-6v2h-4v2h-2v2h-2v39h2v-2h3v2h4v-2h4v2h4v-2h3v2h2V8h-2Z"/>
  <path class="cls-9" d="M23,45h-1v-2h-3v2h-4v-2h-4v2h-4v-2h-3v2h-2V8h2v-1h2v-2h4v-2h6v2h4v2h2v2h1v36Z"/>
  <path class="cls-8" d="M4,52v1h1v1h16v-1h1v-1H4Z"/>
  <path class="cls-10" d="M3,26h2v2h-2v-2Z"/>
  <g>
    <path class="cls-6" d="M4,9v-1h-2v7h1v-1h1v-1h1v-4h-1Z"/>
    <path class="cls-2" d="M3,9v-1h-1v6h1v-1h1v-4h-1Z"/>
    <path class="cls-1" d="M3,9v-1h-1v3h2v-2h-1Z"/>
  </g>
  <path class="cls-6" d="M3,18v-2h-1v8h1v-2h2v-4h-2Z"/>
  <g>
    <path class="cls-3" d="M7,19v-1h-1v-2h-1v-1h-2v-1H0v11h3v-1h2v-1h1v-2h1v-1h2v-1h-2Z"/>
    <path class="cls-3" d="M9,18v1h16v-1H9Z"/>
    <path class="cls-4" d="M5,18v-2h-2v-1H0v9h3v-1h2v-2h1v-3h-1Z"/>
    <path class="cls-9" d="M0,19v1h2v-1H0Z"/>
    <path class="cls-7" d="M5,16h-2v-1H0v4h6v-1h-1v-2Z"/>
  </g>
  <path class="cls-6" d="M6,38h-1v-4h1v-1h2v-1h2v-1h1v-1h1v-1h2v1h-.2v5h.2v1h-1v1h-1v1h-2v1h-4v-1Z"/>
  <path class="cls-9" d="M6,34h2v-1h2v-1h1v-1h1v-1h2v5h-1v1h-1v1h-2v1h-4v-4Z"/>
  <g>
    <path class="cls-5" d="M14,34v1h-1v-1h1Z"/>
    <path class="cls-5" d="M10,36v1h2v-1h1v-1h-1v1h-2Z"/>
    <path class="cls-5" d="M10,37v1h-4v-1h4Z"/>
  </g>
</svg>