<?xml version="1.0" encoding="UTF-8"?>
<svg id="Layer_1" data-name="Layer 1" xmlns="http://www.w3.org/2000/svg" width="1.2cm" height="1.9cm" xmlns:v="https://vecta.io/nano" version="1.1" viewBox="0 0 34 54">
  <defs>
    <style>
      .cls-1 {
        fill: #dea8ff;
      }

      .cls-1, .cls-2, .cls-3, .cls-4, .cls-5, .cls-6, .cls-7, .cls-8, .cls-9, .cls-10 {
        stroke-width: 0px;
      }

      .cls-2 {
        fill: #c260ff;
      }

      .cls-3 {
        fill: #0023cd;
      }

      .cls-4, .cls-8 {
        fill: #000;
      }

      .cls-5 {
        fill: #edd3fd;
      }

      .cls-6 {
        fill: #64438e;
      }

      .cls-7 {
        fill: #05f;
      }

      .cls-8 {
        isolation: isolate;
        opacity: .2;
      }

      .cls-9 {
        fill: #fff;
      }

      .cls-10 {
        fill: #f696c6;
      }
    </style>
  </defs>
  <g>
    <path class="cls-6" d="M32,8v-2h-2v-2h-4v-2h-4V0h-10v2h-4v2h-4v2h-2v2H0v41h4v-2h5v2h5v-2h6v2h5v-2h5v2h4V8h-2Z"/>
    <path class="cls-5" d="M30,8v-2h-4v-2h-4v-2h-10v2h-4v2h-4v2h-2v39h2v-2h5v2h5v-2h6v2h5v-2h5v2h2V8h-2Z"/>
    <path class="cls-9" d="M3,43h2v-1h2v1h2v2h5v-2h2v-1h2v1h2v2h5v-2h2v-1h2v1h1V8h-4v-2h-4v-2h-5v-1h-5v2h-4v2h-4v2h-1v34Z"/>
  </g>
  <path class="cls-10" d="M6,26v2h2v-2h-2ZM27,26h-1v2h2v-2h-1Z"/>
  <g>
    <path class="cls-6" d="M14,26h-2v2h2v-2Z"/>
    <path class="cls-6" d="M18,28h-4v2h6v-2h-2Z"/>
    <path class="cls-6" d="M21,26h-1v2h2v-2h-1Z"/>
  </g>
  <path class="cls-8" d="M10,52h-6v1h1v1h24v-1h1v-1H10Z"/>
  <g>
    <g>
      <path class="cls-6" d="M14,11v-2h-1v4h1v-2Z"/>
      <path class="cls-6" d="M14,8h1v1h-1v-1ZM14,13h1v1h-1v-1Z"/>
      <path class="cls-6" d="M15,14h1v1h-1v-1Z"/>
      <path class="cls-6" d="M16,15v1h2v-1h-2ZM15,7h1v1h-1v-1ZM19,13h1v1h-1v-1ZM19,8h1v1h-1v-1Z"/>
      <path class="cls-6" d="M18,7v-1h-2v1h2ZM18,14h1v1h-1v-1Z"/>
      <path class="cls-6" d="M18,7h1v1h-1v-1ZM20,9v4h1v-4h-1Z"/>
    </g>
    <path class="cls-2" d="M19,11h-2v4h1v-1h1v-1h1v-2h-1Z"/>
    <g>
      <path class="cls-1" d="M15,11h-1v2h1v1h1v1h1v-4h-2Z"/>
      <path class="cls-1" d="M19,9v-1h-1v-1h-1v4h3v-2h-1Z"/>
    </g>
    <path class="cls-5" d="M16,11h1v-4h-1v1h-1v1h-1v2h2Z"/>
  </g>
  <g>
    <path class="cls-6" d="M8,22v2h4v-2h2v-4h-2v-2h-4v2h-2v4h2Z"/>
    <path class="cls-6" d="M20,18v4h2v2h4v-2h2v-4h-2v-2h-4v2h-2Z"/>
  </g>
  <g>
    <g>
      <path class="cls-6" d="M4,36h1v1h-1v-1ZM5,30h1v1h-1v-1Z"/>
      <path class="cls-6" d="M6,31h1v1h-1v-1ZM11,34v4h1v-4h-1ZM6,37h-1v1h2v-1h-1Z"/>
      <path class="cls-6" d="M9,38h-2v1h4v-1h-2ZM10,33h-1v1h2v-1h-1Z"/>
      <path class="cls-6" d="M8,32h-1v1h2v-1h-1Z"/>
    </g>
    <g>
      <path class="cls-5" d="M4,37h1v1h-1v-1ZM9,39h-2v1h4v-1h-2Z"/>
      <path class="cls-5" d="M12,35v3h1v-3h-1ZM6,38h-1v1h2v-1h-1Z"/>
    </g>
    <g>
      <path class="cls-6" d="M29,36h1v1h-1v-1ZM28,30h1v1h-1v-1Z"/>
      <path class="cls-6" d="M27,31h1v1h-1v-1Z"/>
      <path class="cls-6" d="M27,33v-1h-2v1h2ZM27,37v1h2v-1h-2Z"/>
      <path class="cls-6" d="M25,38h-2v1h4v-1h-2Z"/>
      <path class="cls-6" d="M23,36v-2h-1v4h1v-2Z"/>
      <path class="cls-6" d="M25,34v-1h-2v1h2Z"/>
    </g>
    <g>
      <path class="cls-5" d="M27,38v1h2v-1h-2ZM22,36v-1h-1v3h1v-2Z"/>
      <path class="cls-5" d="M25,39h-2v1h4v-1h-2Z"/>
      <path class="cls-5" d="M22,38h1v1h-1v-1ZM29,37h1v1h-1v-1Z"/>
    </g>
  </g>
  <g>
    <path class="cls-4" d="M30,19v-1h-1v-2h-1v-1h-2v-1h-4v1h-2v1h-1v2h-4v-2h-1v-1h-2v-1h-4v1h-2v1h-1v2h-1v1h-2v1h2v1h1v2h1v1h2v1h4v-1h2v-1h1v-2h1v-2h2v2h1v2h1v1h2v1h4v-1h2v-1h1v-2h1v-1h2v-1h-2Z"/>
    <path class="cls-4" d="M0,18v1h2v-1H0ZM32,18v1h2v-1h-2Z"/>
    <path class="cls-3" d="M14,16h-2v-1h-4v1h-2v2h-1v3h1v2h2v1h4v-1h2v-2h1v-3h-1v-2ZM28,18v-2h-2v-1h-4v1h-2v2h-1v3h1v2h2v1h4v-1h2v-2h1v-3h-1Z"/>
    <path class="cls-9" d="M5,19v1h6v-1h-6ZM19,19v1h6v-1h-6Z"/>
    <path class="cls-7" d="M14,16h-2v-1h-4v1h-2v2h-1v1h10v-1h-1v-2ZM28,16h-2v-1h-4v1h-2v2h-1v1h10v-1h-1v-2Z"/>
  </g>
</svg>