<?xml version="1.0" encoding="UTF-8"?>
<svg id="Layer_1" data-name="Layer 1" xmlns="http://www.w3.org/2000/svg" width="25" height="54" xmlns:v="https://vecta.io/nano" version="1.1" viewBox="0 0 25 54">
  <defs>
    <style>
      .cls-1 {
        fill: #dea8ff;
      }

      .cls-1, .cls-2, .cls-3, .cls-4, .cls-5, .cls-6, .cls-7, .cls-8, .cls-9, .cls-10 {
        stroke-width: 0px;
      }

      .cls-2 {
        fill: #c260ff;
      }

      .cls-3, .cls-8 {
        fill: #000;
      }

      .cls-4 {
        fill: #0122cd;
      }

      .cls-5 {
        fill: #edd3fd;
      }

      .cls-6 {
        fill: #64438e;
      }

      .cls-7 {
        fill: #05f;
      }

      .cls-8 {
        isolation: isolate;
        opacity: .2;
      }

      .cls-9 {
        fill: #fff;
      }

      .cls-10 {
        fill: #f696c6;
      }
    </style>
  </defs>
  <path class="cls-6" d="M1,8v-2h2v-2h2v-2h4V0h6v2h4v2h2v2h2v2h1v41h-3v-2h-3v2h-4v-2h-4v2h-4v-2h-3v2H0V8h1Z"/>
  <path class="cls-5" d="M3,8v-2h2v-2h4v-2h6v2h4v2h2v2h2v39h-2v-2h-3v2h-4v-2h-4v2h-4v-2h-3v2H1V8h2Z"/>
  <path class="cls-9" d="M2,9h1v-2h2v-2h4v-2h6v2h4v2h2v1h2v37h-2v-2h-3v2h-4v-2h-4v2h-4v-2h-3v2h-1V9Z"/>
  <path class="cls-8" d="M3,52v1h1v1h16v-1h1v-1H3Z"/>
  <path class="cls-10" d="M20,26h2v2h-2v-2Z"/>
  <g>
    <path class="cls-6" d="M21,8v1h-1v4h1v1h1v1h1v-7h-2Z"/>
    <path class="cls-1" d="M22,8v1h-1v4h1v1h1v-6h-1Z"/>
    <path class="cls-2" d="M22,8v1h-1v2h2v-3h-1Z"/>
  </g>
  <path class="cls-6" d="M23,24v-8h-1v2h-2v4h2v2h1Z"/>
  <g>
    <path class="cls-3" d="M22,14v1h-2v1h-1v2h-1v1h-2v1h2v1h1v2h1v1h2v1h3v-11h-3Z"/>
    <path class="cls-3" d="M0,18v1h16v-1H0Z"/>
    <path class="cls-4" d="M22,15v1h-2v2h-1v3h1v2h2v1h3v-9h-3Z"/>
    <path class="cls-9" d="M19,19v1h6v-1h-6Z"/>
    <path class="cls-7" d="M25,15h-3v1h-2v2h-1v1h6v-4Z"/>
  </g>
  <path class="cls-6" d="M19,39h-4v-1h-2v-1h-1v-1h-1v-1h.2v-5h-.2v-1h2v1h1v1h1v1h2v1h2v1h1v4h-1v1Z"/>
  <path class="cls-9" d="M19,38h-4v-1h-2v-1h-1v-1h-1v-5h2v1h1v1h1v1h2v1h2v4Z"/>
  <g>
    <path class="cls-5" d="M12,34v1h-1v-1h1Z"/>
    <path class="cls-5" d="M13,36v-1h-1v1h1v1h2v-1h-2Z"/>
    <path class="cls-5" d="M19,37v1h-4v-1h4Z"/>
  </g>
</svg>