<?xml version="1.0" encoding="UTF-8"?>
<svg id="Layer_1" data-name="Layer 1" xmlns="http://www.w3.org/2000/svg" width="50" height="54" xmlns:v="https://vecta.io/nano" version="1.1" viewBox="0 0 50 54">
  <defs>
    <style>
      .cls-1 {
        fill: #dea8ff;
      }

      .cls-1, .cls-2, .cls-3, .cls-4, .cls-5, .cls-6, .cls-7, .cls-8, .cls-9, .cls-10 {
        stroke-width: 0px;
      }

      .cls-2 {
        fill: #c260ff;
      }

      .cls-3 {
        fill: #0023cd;
      }

      .cls-4, .cls-8 {
        fill: #000;
      }

      .cls-5 {
        fill: #edd3fd;
      }

      .cls-6 {
        fill: #64438e;
      }

      .cls-7 {
        fill: #05f;
      }

      .cls-8 {
        isolation: isolate;
        opacity: .2;
      }

      .cls-9 {
        fill: #fff;
      }

      .cls-10 {
        fill: #f696c6;
      }
    </style>
  </defs>
  <g>
    <path class="cls-6" d="M40,8v-2h-2v-2h-4v-2h-4V0h-10v2h-4v2h-4v2h-2v2h-2v41h4v-2h5v2h5v-2h6v2h5v-2h5v2h4V8h-2Z"/>
    <path class="cls-5" d="M38,8v-2h-4v-2h-4v-2h-10v2h-4v2h-4v2h-2v39h2v-2h5v2h5v-2h6v2h5v-2h5v2h2V8h-2Z"/>
    <path class="cls-9" d="M11,43h2v-1h2v1h2v2h5v-2h2v-1h2v1h2v2h5v-2h2v-1h2v1h1V8h-4v-2h-4v-2h-5v-1h-5v2h-4v2h-4v2h-1v34Z"/>
  </g>
  <path class="cls-10" d="M14,26v2h2v-2h-2ZM35,26h-1v2h2v-2h-1Z"/>
  <g>
    <path class="cls-6" d="M22,26h-2v2h2v-2Z"/>
    <path class="cls-6" d="M26,28h-4v2h6v-2h-2Z"/>
    <path class="cls-6" d="M29,26h-1v2h2v-2h-1Z"/>
  </g>
  <path class="cls-8" d="M18,52h-6v1h1v1h24v-1h1v-1h-20Z"/>
  <g>
    <g>
      <path class="cls-6" d="M22,11v-2h-1v4h1v-2Z"/>
      <path class="cls-6" d="M22,8h1v1h-1v-1ZM22,13h1v1h-1v-1Z"/>
      <path class="cls-6" d="M23,14h1v1h-1v-1Z"/>
      <path class="cls-6" d="M24,15v1h2v-1h-2ZM23,7h1v1h-1v-1ZM27,13h1v1h-1v-1ZM27,8h1v1h-1v-1Z"/>
      <path class="cls-6" d="M26,7v-1h-2v1h2ZM26,14h1v1h-1v-1Z"/>
      <path class="cls-6" d="M26,7h1v1h-1v-1ZM28,9v4h1v-4h-1Z"/>
    </g>
    <path class="cls-2" d="M27,11h-2v4h1v-1h1v-1h1v-2h-1Z"/>
    <g>
      <path class="cls-1" d="M23,11h-1v2h1v1h1v1h1v-4h-2Z"/>
      <path class="cls-1" d="M27,9v-1h-1v-1h-1v4h3v-2h-1Z"/>
    </g>
    <path class="cls-5" d="M24,11h1v-4h-1v1h-1v1h-1v2h2Z"/>
  </g>
  <g>
    <path class="cls-6" d="M16,22v2h4v-2h2v-4h-2v-2h-4v2h-2v4h2Z"/>
    <path class="cls-6" d="M28,18v4h2v2h4v-2h2v-4h-2v-2h-4v2h-2Z"/>
  </g>
  <g>
    <path class="cls-6" d="M49,32v-1h-2v-1h-2v-1h-1v-1h-1v-1h-1v8h1v1h2v1h4v-1h1v-4h-1Z"/>
    <path class="cls-5" d="M47,32v-1h-2v-1h-1v-1h-1v-1h-1v6h1v1h2v1h4v-4h-2Z"/>
    <path class="cls-9" d="M47,32v-1h-2v-1h-1v-1h-1v-1h-1v5h1v1h2v1h4v-3h-2Z"/>
    <path class="cls-6" d="M1,32v-1h2v-1h2v-1h1v-1h1v-1h1v8h-1v1h-2v1H1v-1H0v-4h1Z"/>
    <path class="cls-5" d="M3,32v-1h2v-1h1v-1h1v-1h1v6h-1v1h-2v1H1v-4h2Z"/>
    <path class="cls-9" d="M1,32v3h4v-1h2v-1h1v-5h-1v1h-1v1h-1v1h-2v1H1Z"/>
  </g>
  <g>
    <path class="cls-4" d="M38,19v-1h-1v-2h-1v-1h-2v-1h-4v1h-2v1h-1v2h-4v-2h-1v-1h-2v-1h-4v1h-2v1h-1v2h-1v1h-2v1h2v1h1v2h1v1h2v1h4v-1h2v-1h1v-2h1v-2h2v2h1v2h1v1h2v1h4v-1h2v-1h1v-2h1v-1h2v-1h-2Z"/>
    <path class="cls-4" d="M8,18v1h2v-1h-2ZM40,18v1h2v-1h-2Z"/>
    <path class="cls-3" d="M22,16h-2v-1h-4v1h-2v2h-1v3h1v2h2v1h4v-1h2v-2h1v-3h-1v-2ZM36,18v-2h-2v-1h-4v1h-2v2h-1v3h1v2h2v1h4v-1h2v-2h1v-3h-1Z"/>
    <path class="cls-9" d="M13,19v1h6v-1h-6ZM27,19v1h6v-1h-6Z"/>
    <path class="cls-7" d="M22,16h-2v-1h-4v1h-2v2h-1v1h10v-1h-1v-2ZM36,16h-2v-1h-4v1h-2v2h-1v1h10v-1h-1v-2Z"/>
  </g>
</svg>