<svg width="40" height="64" viewBox="0 0 40 64" fill="none" xmlns="http://www.w3.org/2000/svg">
<path d="M38 18V8H36V6H34V4H32V2H28V0H12V2H8V4H6V6H4V8H2V18H0V28H2V60H0V64H8V42H12V60H10V64H18V42H22V64H30V60H28V42H32V64H40V60H38V28H40V18H38Z" fill="black"/>
<path d="M8 18H36V16H4V18H8ZM36 58V28H4V60H2V62H6V42H8V40H12V42H14V60H12V62H16V42H18V40H22V42H24V62H28V60H26V42H28V40H32V42H34V62H38V60H36V58ZM37 20H2V26H38V20H37ZM8 14H36V8H34V6H32V4H28V2H12V4H8V6H6V8H4V14H8Z" fill="#A0FFFF"/>
<path d="M34 44H36V46H34V44ZM24 44H26V46H24V44ZM14 44H16V46H14V44ZM4 44H6V46H4V44ZM34 48H36V50H34V48ZM24 48H26V50H24V48ZM14 48H16V50H14V48ZM4 48H6V50H4V48ZM34 52H36V54H34V52ZM24 52H26V54H24V52ZM14 52H16V54H14V52ZM4 52H6V54H4V52ZM34 56H36V58H34V56ZM24 56H26V58H24V56ZM14 56H16V58H14V56ZM4 56H6V58H4V56Z" fill="#00AFAF"/>
<path d="M4 16H6V18H4V16ZM34 16H36V18H34V16ZM4 30V44H6V28H4V30ZM36 42V28H34V44H36V42ZM24 42H26V44H24V42ZM14 42H16V44H14V42ZM34 46H36V48H34V46ZM24 46H26V48H24V46ZM14 46H16V48H14V46ZM4 46H6V48H4V46ZM34 50H36V52H34V50ZM24 50H26V52H24V50ZM14 50H16V52H14V50ZM4 50H6V52H4V50ZM34 54H36V56H34V54ZM24 54H26V56H24V54ZM14 54H16V56H14V54ZM4 54H6V56H4V54ZM26 58H24V62H28V60H26V58ZM14 60H12V62H16V58H14V60ZM4 60H2V62H6V58H4V60ZM36 60V58H34V62H38V60H36Z" fill="#D2FFFF"/>
<path d="M2 20V26H38V20H2Z" fill="#005F5F"/>
<path d="M32 8V6H30V4H26V2H14V4H10V6H8V8H6V14H34V8H32Z" fill="white"/>
<path d="M4 10V14H6V8H4V10Z" fill="#E1E1E1"/>
<path d="M6 6H8V8H6V6Z" fill="#E1E1E1"/>
<path d="M8 4H10V6H8V4ZM12 2H14V4H12V2ZM26 2H28V4H26V2ZM30 4H32V6H30V4Z" fill="#E1E1E1"/>
<path d="M32 6H34V8H32V6Z" fill="#E1E1E1"/>
<path d="M34 8V14H36V8H34Z" fill="#E1E1E1"/>
<path d="M12 12H14V14H12V12ZM16 12H18V14H16V12ZM22 12H24V14H22V12ZM26 12H28V14H26V12ZM8 12H10V14H8V12ZM30 12H32V14H30V12Z" fill="#FF216E"/>
<path d="M12 10H14V12H12V10ZM16 10H18V12H16V10ZM22 10H24V12H22V10ZM26 10H28V12H26V10ZM8 10H10V12H8V10ZM30 10H32V12H30V10Z" fill="#FF4988"/>
<path d="M12 8H14V10H12V8ZM6 8H8V10H6V8ZM16 8H18V10H16V8ZM22 8H24V10H22V8ZM26 8H28V10H26V8ZM32 8H34V10H32V8Z" fill="#FF74A4"/>
<path d="M14 4H16V6H14V4ZM24 4H26V6H24V4Z" fill="#FFD9E6"/>
<path d="M10 6H12V8H10V6ZM16 6H18V8H16V6ZM22 6H24V8H22V6ZM28 6H30V8H28V6Z" fill="#FFBDD4"/>
<path d="M7 20H5V26H11V20H7ZM9 24H7V22H9V24ZM19 20H17V26H23V20H19ZM21 24H19V22H21V24ZM33 20H29V26H35V20H33ZM33 24H31V22H33V24Z" fill="#D2FFFF"/>
<path d="M13 22V26H15V20H13V22ZM25 22V26H27V20H25V22ZM37 20V26H38V20H37ZM2 22V26H3V20H2V22Z" fill="#00FFFF"/>
<path d="M24 32H12V48H14V50H16V52H24V50H26V48H28V32H24Z" fill="black"/>
<path d="M10 30H12V32H10V30ZM28 30H30V32H28V30Z" fill="black"/>
<path d="M24 34H14V48H16V50H24V48H26V34H24Z" fill="#FFBDD4"/>
<path d="M16 34V48H18V50H24V48H26V34H16Z" fill="#FF74A4"/>
<path d="M20 34V50H22V34H20Z" fill="#FF216E"/>
<path d="M24 34V48H26V34H24ZM18 36V50H20V34H18V36Z" fill="#FF4988"/>
<path d="M22 48H24V50H22V48Z" fill="#FF4988"/>
</svg>
